{"title":"The Caller 2011 VOD TiCTaC","uid":6648369,"size":806643082,"categoryP":"video","categoryS":"movies","magnet":"?xt=urn:btih:663c194e119174b2c6fa2ea878f5de6fff2344cf&amp;dn=The+Caller+2011+VOD+TiCTaC&amp;tr=udp%3A%2F%2Ftracker.openbittorrent.com%3A80&amp;tr=udp%3A%2F%2Fopen.demonii.com%3A1337&amp;tr=udp%3A%2F%2Ftracker.coppersurfer.tk%3A6969&amp;tr=udp%3A%2F%2Fexodus.desync.com%3A6969","seeders":0,"leechers":0,"uploader":"SAFCukO09","files":3,"time":1315035668,"description":"IMDB\n &lt;a href=&quot;\nhttp://www.imdb.com/title/tt1525890/&quot; rel=&quot;nofollow&quot; target=&quot;_NEW&quot;&gt;\nhttp://www.imdb.com/title/tt1525890/&lt;/a&gt;\n\nPlot\n\nTroubled divorcee Mary Kee is tormented by a series of sinister phone\n\ncalls from a mysterious woman. When the stranger reveals she's calling\n\nfrom the past, Mary tries to break off contact. But the caller doesn't\n\nlike being ignored, and looks for revenge in a unique and terrifying way\n\nFound the movie very entertaining and with its numerous twists, a movie\n\nabout who was who, what does it really mean and what was real or a dream.\n\na must see movie!\n\nFile Details\n\n\n\n\nCast\n\nStephen Moyer Stephen Moyer ...\nJohn Guidi\nRachelle Lefevre Rachelle Lefevre ...\nMary Kee\nLuis GuzmÃƒÂ¡n Luis GuzmÃƒÂ¡n ...\nGeorge\nEd Quinn Ed Quinn ...\nSteven\nLorna Raver Lorna Raver ...\nRose\nCordelia GonzÃƒÂ¡lez Cordelia GonzÃƒÂ¡lez ...\nJudge\nMarisÃƒÂ© Alvarez MarisÃƒÂ© Alvarez ...\nNurse\nAlfredo De Quesada Alfredo De Quesada ...\nAttorney Davies\nBrian Tester Brian Tester ...\nAttorney Kirkby\nAris Mejias Aris Mejias ...\nYoung Woman\nGladys RodrÃƒÂ­guez Gladys RodrÃƒÂ­guez ...\nMrs. Guidi\nGrace Connelly Grace Connelly ...\nDr. Hain\nJose Cotte Jose Cotte ...\nSocial Services Clerk\nLeonardo Castro Leonardo Castro ...\nFire Dancer\nJohnathan R. Santiago Johnathan R. Santiago ...\n\n\n\nGenres:\nHorror | Mystery | Thriller\n\nRated R for some violence/disturbing images, language and a scene of\n\nsexuality\n\n\nCountry:\nPuerto Rico\n\n\nLanguage:\nEnglish\n\nColor\n\n\nGeneral\nComplete name : G:\\TORRENTS\\The Caller 2011 VOD\n\nTiCTaC\\The Caller 2011 VOD TiCTaC.avi\nFormat : AVI\nFormat/Info : Audio Video Interleave\nFile size : 461 MiB\nDuration : 53mn 44s\nOverall bit rate : 1 198 Kbps\nWriting application : Lavf52.13.0\nWriting library : VirtualDub build 32842/release\n\nVideo\nID : 0\nFormat : MPEG-4 Visual\nFormat profile : Simple@L1\nFormat settings, BVOP : No\nFormat settings, QPel : No\nFormat settings, GMC : No warppoints\nFormat settings, Matrix : Default (H.263)\nCodec ID : XVID\nCodec ID/Hint : XviD\nDuration : 53mn 44s\nBit rate : 994 Kbps\nWidth : 720 pixels\nHeight : 432 pixels\nDisplay aspect ratio : 16:9\nFrame rate : 25.000 fps\nResolution : 8 bits\nColorimetry : 4:2:0\nScan type : Progressive\nBits/(Pixel*Frame) : 0.128\nStream size : 382 MiB (83%)\nWriting library : Lavc51.54.0\n\nAudio\nID : 1\nFormat : MPEG Audio\nFormat version : Version 1\nFormat profile : Layer 3\nMode : Joint stereo\nFormat_Settings_ModeExtension : MS Stereo\nCodec ID : 55\nCodec ID/Hint : MP3\nDuration : 53mn 44s\nBit rate mode : Constant\nBit rate : 192 Kbps\nChannel(s) : 2 channels\nSampling rate : 44.1 KHz\nStream size : 73.8 MiB (16%)\nAlignment : Aligned on interleaves\nInterleave, duration : 26 ms (0.65 video frame)\nInterleave, preload duration : 522 ms\nWriting library : LAME3.98 (beta)\n","torrent":{"xt":"urn:btih:663c194e119174b2c6fa2ea878f5de6fff2344cf","amp;dn":"The+Caller+2011+VOD+TiCTaC","amp;tr":["udp%3A%2F%2Ftracker.openbittorrent.com%3A80","udp%3A%2F%2Fopen.demonii.com%3A1337","udp%3A%2F%2Ftracker.coppersurfer.tk%3A6969","udp%3A%2F%2Fexodus.desync.com%3A6969"],"infoHash":"663c194e119174b2c6fa2ea878f5de6fff2344cf","infoHashBuffer":{"type":"Buffer","data":[102,60,25,78,17,145,116,178,198,250,46,168,120,245,222,111,255,35,68,207]},"announce":[],"urlList":[]}}